<svg width="32" height="32" viewBox="0 0 16 23" fill="none" xmlns="http://www.w3.org/2000/svg">
<g id="Menu/ Faction Claims">
<g id="Background-Fill">
<path fill-rule="evenodd" clip-rule="evenodd" d="M1.33345 0C1.77528 0 2.13345 0.358172 2.13345 0.8V2.77333L3.96883 2.40626C5.72939 2.05414 7.55436 2.2217 9.22137 2.8885L9.66221 3.06484C11.1821 3.67278 12.8549 3.78631 14.4429 3.3893C15.116 3.22103 15.6565 3.95051 15.2995 4.5454L13.9358 6.81836C13.5715 7.42546 13.3894 7.72901 13.3462 8.05919C13.3282 8.19692 13.3282 8.33641 13.3462 8.47414C13.3894 8.80432 13.5715 9.10787 13.9358 9.71497L15.6005 12.4895C15.932 13.042 15.6355 13.7578 15.0104 13.9141L14.9036 13.9408C13.016 14.4127 11.0278 14.2777 9.22137 13.5552C7.55436 12.8884 5.72939 12.7208 3.96883 13.0729L2.13345 13.44V22.1333C2.13345 22.5752 1.77528 22.9333 1.33345 22.9333C0.891619 22.9333 0.533447 22.5752 0.533447 22.1333V0.8C0.533447 0.358172 0.891619 0 1.33345 0Z" fill="#A6A6A6"/>
</g>
</g>
</svg>