<svg width="32" height="32" viewBox="0 0 32 32" fill="none" xmlns="http://www.w3.org/2000/svg">
<g clip-path="url(#clip0_14039_463)">
<path fill-rule="evenodd" clip-rule="evenodd" d="M15.9948 27.9633L12.8977 21.7691H19.0919L15.9948 27.9633Z" fill="#E95045"/>
<path fill-rule="evenodd" clip-rule="evenodd" d="M15.9948 11.1934L10.4221 23.1571C10.2356 23.5404 10.1424 23.8511 9.73844 23.8511H6.06127C5.533 23.8511 5.24297 23.7164 5.50192 23.1571L14.5032 3.5697C14.6897 3.2486 14.8036 3 15.2076 3H16.8027C17.2067 3 17.3207 3.23824 17.5071 3.5697L26.5084 23.1675C26.7674 23.7268 26.4773 23.8615 25.9491 23.8615H22.2719C21.8679 23.8615 21.7747 23.5507 21.5882 23.1675L15.9948 11.1934Z" fill="white"/>
<path fill-rule="evenodd" clip-rule="evenodd" d="M12.3487 24.9593C12.214 24.69 11.8411 24.6279 11.6443 24.8661C11.2818 25.3219 10.6914 25.7776 9.73843 25.7776H7.4389C9.33446 27.4349 11.6961 28.5536 14.3168 28.8954L14.2753 28.8229L12.3383 24.9593H12.3487Z" fill="white"/>
<path fill-rule="evenodd" clip-rule="evenodd" d="M22.2615 25.7777C21.3086 25.7777 20.7182 25.322 20.3556 24.8662C20.1692 24.628 19.7859 24.6798 19.6513 24.9594L17.7143 28.823L17.6729 28.8956C20.2935 28.5537 22.6552 27.435 24.5507 25.7777H22.2512H22.2615Z" fill="white"/>
<path d="M5.52264 17.0457C5.34655 17.6362 5.30512 18.2473 5.27404 19.0449L6.1027 17.3565C6.01984 17.3151 5.79195 17.2115 5.52264 17.0457ZM5.81267 10.489C5.81267 10.489 6.80706 9.51532 8.58867 9.1735C8.58867 9.1735 6.93136 11.9599 7.44927 14.3215L11.2715 5.98317C8.83727 6.86362 7.13852 8.51057 5.81267 10.489ZM26.1873 10.489C24.8614 8.51057 23.1523 6.86362 20.7285 5.98317L24.5611 14.3112C25.079 11.9599 23.4216 9.16314 23.4216 9.16314C25.2033 9.50496 26.1977 10.4786 26.1977 10.4786L26.1873 10.489ZM25.8973 17.3565L26.7259 19.0449C26.7052 18.2473 26.6534 17.6362 26.4773 17.0457C26.1977 17.2011 25.9698 17.3151 25.8973 17.3461V17.3565ZM6.09234 15.782C5.72981 14.7151 5.54336 13.4825 5.96804 11.8252C5.23261 12.4467 4.69398 13.2961 4.36252 14.3837C4.11392 15.3677 3.98962 16.3207 3.98962 17.2736C3.98962 17.719 4.0207 18.1748 4.07249 18.6306C4.13464 17.3876 4.37288 15.9892 5.04616 15.2745L5.22225 15.088L5.39834 15.2745C5.57443 15.4506 5.84375 15.637 6.09234 15.782ZM27.6271 14.3733C27.2956 13.2961 26.7674 12.4363 26.0319 11.8252C26.4566 13.4825 26.2702 14.7255 25.9076 15.782C26.1562 15.637 26.4255 15.4506 26.6016 15.2745L26.7777 15.088L26.9538 15.2745C27.6271 15.9789 27.8653 17.3772 27.9275 18.6202C27.9793 18.1644 28.0103 17.719 28.0103 17.2736C28.0103 16.3207 27.886 15.3677 27.6374 14.3733H27.6271Z" fill="white"/>
</g>
<defs>
<clipPath id="clip0_14039_463">
<rect width="24" height="25.8956" fill="white" transform="translate(4 3)"/>
</clipPath>
</defs>
</svg>
