<svg width="32" height="32" viewBox="0 0 32 32" fill="none" xmlns="http://www.w3.org/2000/svg">
<g clip-path="url(#clip0_14039_456)">
<path d="M30.9625 26.303L30.5875 25.0954C30.3906 24.4774 29.8937 24.097 29.275 24.097C23.2375 24.097 19.3093 25.0954 16.5437 27.3393C16.3843 27.4725 16.1968 27.539 16 27.539C15.8031 27.539 15.6156 27.4725 15.4562 27.3393C12.6906 25.0954 8.77184 24.097 2.73435 24.097C2.1156 24.097 1.61872 24.4774 1.42185 25.0954L1.04685 26.303C0.96247 26.5597 1.00935 26.8354 1.18747 27.0636C1.39372 27.3298 1.74997 27.5105 2.09685 27.5105H2.17185C3.25935 27.4249 4.2156 27.3869 5.11559 27.3869C10.1312 27.3869 12.2781 28.68 14.9781 30.6672C15.2781 30.8859 15.6343 31 16.0093 31C16.3843 31 16.7406 30.8859 17.0406 30.6672C19.7406 28.6895 21.8875 27.3869 26.9031 27.3869C27.7937 27.3869 28.7593 27.4249 29.8468 27.5105H29.8562H29.9218C30.2687 27.5105 30.625 27.3393 30.8312 27.0636C31.0093 26.8354 31.0562 26.5692 30.9718 26.303H30.9625Z" fill="white"/>
<path d="M17.6313 9.83475C17.6313 8.92197 16.9 8.18033 16 8.18033C15.1 8.18033 14.3688 8.92197 14.3688 9.83475C14.3688 10.7475 15.1 11.4892 16 11.4892C16.9 11.4892 17.6313 10.7475 17.6313 9.83475Z" fill="white"/>
<path d="M23.546 12.0637C22.8768 10.1334 21.5189 8.07702 19.7051 6.27284C18.9971 5.56475 18.2696 4.95366 17.5325 4.41046C17.8914 4.23586 18.2405 4.09037 18.5897 3.96427C19.2589 3.73147 19.87 3.61507 20.4132 3.61507C21.0533 3.61507 21.5577 3.77997 21.8777 4.10007C22.3239 4.54626 22.4597 5.30285 22.3045 6.25344C22.256 6.56384 22.3336 6.88393 22.5276 7.14583L22.8477 7.58232C23.0222 7.82482 23.2065 8.08672 23.3908 8.36801C23.4781 8.15462 23.5557 7.94122 23.6236 7.73752C24.2831 5.69085 24.0698 3.99337 23.0319 2.96518C21.9553 1.89819 20.1998 1.70419 18.0756 2.44139C16.1455 3.10098 14.0893 4.46866 12.2755 6.28254C11.5771 6.98093 10.9661 7.70842 10.4132 8.45531C10.2678 8.15462 10.132 7.85392 10.0253 7.57262C9.44332 6.01094 9.47241 4.75966 10.1126 4.12917C10.4423 3.79937 10.9273 3.63447 11.5674 3.63447C11.7711 3.63447 11.9942 3.65387 12.227 3.70237C12.5568 3.76057 12.8865 3.68297 13.1581 3.48897L13.5946 3.16888C13.8371 2.99428 14.0989 2.81968 14.3705 2.63538C12.1397 1.76239 10.1417 1.82059 8.96805 2.98458C7.93024 4.02247 7.72655 5.71995 8.3764 7.75692C9.00685 9.726 10.3938 11.8503 12.2755 13.7321C12.9738 14.4207 13.7013 15.0415 14.4481 15.5944C14.1474 15.7399 13.8468 15.8757 13.5558 15.9824C11.9942 16.5644 10.743 16.5353 10.1126 15.8951C9.6664 15.4489 9.53061 14.6923 9.6858 13.7321C9.73429 13.4217 9.6567 13.1016 9.46272 12.8397L9.15234 12.4129C8.96805 12.1704 8.79347 11.9085 8.60918 11.6272C8.52189 11.8406 8.4443 12.054 8.3764 12.2674C7.71685 14.314 7.93024 16.0115 8.96805 17.0397C9.5985 17.6702 10.5005 18 11.5674 18C13.9535 18 17.0766 16.3607 19.7148 13.7224C20.4132 13.024 21.0339 12.2965 21.5771 11.5496C21.7516 11.9085 21.8971 12.2577 22.0232 12.6069C22.5373 14.0909 22.4791 15.284 21.8777 15.8854C21.4413 16.3219 20.675 16.4674 19.7245 16.3122C19.4141 16.2637 19.0941 16.3413 18.8419 16.5353L18.4054 16.8554C18.1629 17.03 17.9011 17.2143 17.6198 17.3889C17.775 17.4471 17.9204 17.515 18.0756 17.5635C18.9195 17.8545 19.7148 18 20.4326 18C21.4995 18 22.4015 17.6702 23.0319 17.03C24.1086 15.963 24.2928 14.1976 23.5557 12.0734L23.546 12.0637ZM20.5101 10.2207C19.9476 11.0355 19.2977 11.8309 18.5606 12.5584C17.8332 13.2859 17.0378 13.9454 16.2328 14.4983C16.0873 14.605 15.8836 14.605 15.7381 14.4983C14.9428 13.9454 14.1571 13.2956 13.4103 12.5584C12.6829 11.8309 12.0233 11.0452 11.4705 10.2401C11.3638 10.0946 11.3638 9.8909 11.4705 9.7454C12.0233 8.94031 12.6829 8.14492 13.4103 7.40773C14.1474 6.67053 14.9331 6.01094 15.7187 5.46775C15.8642 5.36105 16.0679 5.36105 16.2134 5.46775C17.0184 6.02064 17.8138 6.67054 18.5606 7.41743C19.2977 8.15462 19.9573 8.94031 20.5101 9.726C20.6168 9.8715 20.6168 10.0752 20.5101 10.2207Z" fill="white"/>
<path d="M3.0812 21.9531C3.54995 21.9341 3.9812 21.9246 4.40308 21.9246C9.09058 21.9246 12.2593 22.8849 15.3531 25.243C15.5406 25.3856 15.775 25.4711 16.0093 25.4711C16.2437 25.4711 16.4781 25.3951 16.6656 25.243C19.75 22.8849 22.9187 21.9246 27.6156 21.9246C28.0375 21.9246 28.4687 21.9246 28.9187 21.9531C29.0968 21.9531 29.2468 21.877 29.35 21.7534C29.4531 21.6203 29.4812 21.4492 29.4343 21.2875C29.3218 20.9167 29.2656 20.8121 29.0968 20.4793L28.8625 20.0039C28.7406 19.7472 28.4312 19.5475 28.15 19.5285C27.7843 19.5095 27.4281 19.5 27.0625 19.5C22.3187 19.5 17.9406 21.259 16.0281 23.018C14.1062 21.259 9.73745 19.5 4.9937 19.5C4.62808 19.5 4.27183 19.5095 3.9062 19.5285C3.61558 19.5475 3.31558 19.7472 3.1937 20.0039L2.95933 20.4793C2.79058 20.8216 2.73433 20.9167 2.62183 21.2875C2.57495 21.4492 2.60308 21.6203 2.7062 21.7534C2.80933 21.8866 2.94995 21.9531 3.1187 21.9531H3.0812Z" fill="white"/>
</g>
<defs>
<clipPath id="clip0_14039_456">
<rect width="30" height="29" fill="white" transform="translate(1 2)"/>
</clipPath>
</defs>
</svg>
