<svg width="32" height="32" viewBox="0 0 32 32" fill="none" xmlns="http://www.w3.org/2000/svg">
<path d="M16 0.000732422C7.16437 0.000732422 0 7.1637 0 16C0 24.8364 7.16367 31.9993 16 31.9993C24.837 31.9993 32 24.8364 32 16C32 7.1637 24.837 0.000732422 16 0.000732422ZM16 4.78471C18.9237 4.78471 21.2928 7.15456 21.2928 10.0768C21.2928 12.9998 18.9237 15.3689 16 15.3689C13.0777 15.3689 10.7086 12.9998 10.7086 10.0768C10.7086 7.15456 13.0777 4.78471 16 4.78471ZM15.9965 27.8162C13.0806 27.8162 10.4099 26.7543 8.35 24.9966C7.84819 24.5686 7.55864 23.941 7.55864 23.2825C7.55864 20.3188 9.9573 17.9468 12.9217 17.9468H19.0797C22.0448 17.9468 24.4343 20.3188 24.4343 23.2825C24.4343 23.9417 24.1462 24.5679 23.6437 24.9959C21.5845 26.7543 18.9131 27.8162 15.9965 27.8162Z" fill="white" fill-opacity="0.5"/>
</svg>
