<svg width="32" height="32" viewBox="0 0 32 32" fill="none" xmlns="http://www.w3.org/2000/svg">
<path d="M24.1421 19.7613H31.7708V13.6287H24.1421V19.7613ZM27.6028 15.518C28.1588 15.518 28.6094 16.0453 28.6094 16.694C28.6094 17.3447 28.1588 17.8707 27.6028 17.8707C27.0468 17.8707 26.5961 17.3447 26.5961 16.694C26.5968 16.0453 27.0468 15.518 27.6028 15.518Z" fill="white" fill-opacity="0.5"/>
<path d="M23.5761 12.4967H31.7708V7.95271C31.7708 6.84938 30.9934 5.95138 30.0374 5.95138H28.3368L27.6441 2.08071C27.5034 1.29071 27.0841 0.634046 26.4954 0.27538C26.0348 -0.00462045 25.5048 -0.0739538 25.0054 0.0813795L6.36742 5.85738C5.88009 6.00738 5.44876 6.36671 5.15409 6.86738L5.16876 6.87671C4.99609 7.18805 4.89209 7.55605 4.89209 7.95271V17.34C5.64742 17.1214 6.44542 16.9994 7.27209 16.9994C11.8928 16.9994 15.6514 20.6634 15.6514 25.1674C15.6514 25.8954 15.5521 26.6094 15.3594 27.3027H30.0368C30.9928 27.3027 31.7701 26.404 31.7701 25.3014V20.8934H23.5761C23.2634 20.8934 23.0101 20.64 23.0101 20.3274V13.0627C23.0108 12.7494 23.2641 12.4967 23.5761 12.4967ZM9.88809 5.95138L25.3414 1.16205C25.5314 1.10338 25.7228 1.13005 25.9094 1.24271C26.2154 1.42938 26.4488 1.81671 26.5314 2.28071L27.1888 5.95138H9.88809Z" fill="white" fill-opacity="0.5"/>
<path d="M7.27331 18.3347C3.38931 18.3347 0.22998 21.4 0.22998 25.1674C0.22998 28.9347 3.38865 32 7.27331 32C10.1893 32 12.8386 30.2234 13.8666 27.578C14.166 26.8094 14.3173 25.998 14.3173 25.1674C14.3173 21.4 11.1573 18.3347 7.27331 18.3347ZM9.98731 25.8354H7.94065V27.8821C7.94065 28.2514 7.64131 28.5494 7.27331 28.5494C6.90465 28.5494 6.60598 28.2514 6.60598 27.8821V25.8354H4.55931C4.19065 25.8354 3.89198 25.5367 3.89198 25.1674C3.89198 24.7987 4.19131 24.5 4.55931 24.5H6.60598V22.4534C6.60598 22.084 6.90465 21.786 7.27331 21.786C7.64198 21.786 7.94065 22.084 7.94065 22.4534V24.5H9.98731C10.356 24.5 10.6546 24.7987 10.6546 25.1674C10.6553 25.5367 10.356 25.8354 9.98731 25.8354Z" fill="#F5C062"/>
</svg>
